<?xml version="1.0" encoding="utf-8"?>
<!-- Generator: Adobe Illustrator 16.0.4, SVG Export Plug-In . SVG Version: 6.00 Build 0)  -->
<!DOCTYPE svg PUBLIC "-//W3C//DTD SVG 1.1//EN" "http://www.w3.org/Graphics/SVG/1.1/DTD/svg11.dtd">
<svg version="1.1" id="Layer_1" xmlns="http://www.w3.org/2000/svg" xmlns:xlink="http://www.w3.org/1999/xlink" x="0px" y="0px"
	 width="68px" height="68px" viewBox="0 0 68 68" enable-background="new 0 0 68 68" xml:space="preserve">
<rect x="-8.5" y="-8.5" fill="none" stroke="#00DCF0" stroke-width="0.2835" stroke-linecap="round" stroke-linejoin="round" stroke-miterlimit="10" width="85" height="85"/>
<circle fill="none" stroke="#00DCF0" stroke-width="0.2835" stroke-linecap="round" stroke-linejoin="round" stroke-miterlimit="10" cx="34" cy="34" r="34"/>
<path id="scleraBack" fill="none" stroke="#00DCF0" stroke-width="0.2835" stroke-linecap="round" stroke-linejoin="round" stroke-miterlimit="10" d="
	M34,10c-13.3,0-24,10.7-24,24s10.7,24.1,24,24.1S58.1,47.3,58.1,34S47.3,10,34,10"/>
<path id="scleraFront" fill="none" stroke="#00DCF0" stroke-width="0.2835" stroke-linecap="round" stroke-linejoin="round" stroke-miterlimit="10" d="
	M34,17.7c9,0,16.3,7.3,16.3,16.3S43,50.3,34,50.3S17.7,43,17.7,34S25,17.7,34,17.7"/>
<path id="iris" fill="none" stroke="#000000" stroke-width="0.2835" stroke-linecap="round" stroke-linejoin="round" stroke-miterlimit="10" d="
	M34,16.3c9.8,0,17.7,7.9,17.7,17.7S43.8,51.7,34,51.7S16.3,43.8,16.3,34S24.2,16.3,34,16.3"/>
<path id="pupilMax" fill="none" stroke="#000000" stroke-width="0.2835" stroke-linecap="round" stroke-linejoin="round" stroke-miterlimit="10" d="
	M34,22.7c6.3,0,11.3,5.1,11.3,11.3s-5,11.4-11.3,11.4S22.7,40.3,22.7,34S27.8,22.7,34,22.7"/>
<path id="pupilMin" fill="none" stroke="#000000" stroke-width="0.2835" stroke-linecap="round" stroke-linejoin="round" stroke-miterlimit="10" d="
	M34,31.2c1.6,0,2.8,1.3,2.8,2.8c0,1.6-1.3,2.8-2.8,2.8c-1.6,0-2.8-1.3-2.8-2.8S32.5,31.2,34,31.2"/>
<path id="lowerLidClosed" fill="none" stroke="#F00000" stroke-width="0.2835" stroke-linecap="round" stroke-linejoin="round" stroke-miterlimit="10" d="
	M68.1,30.3c0.301,4.4-1.938,8.725-10.537,12.825c-6.871,3.303-14.562,5.102-23.45,5.102s-16.579-1.799-23.45-5.102
	C2.062,39.024-0.176,34.7,0.125,30.3"/>
<path id="lowerLidOpen" fill="none" stroke="#F00000" stroke-width="0.2835" stroke-linecap="round" stroke-linejoin="round" stroke-miterlimit="10" d="
	M68.2,31.7c1,12.399-4.3,22.6-11.8,28.6c-7.436,5.895-15.393,6.95-22.288,6.95S19,66.194,11.564,60.3c-7.5-6-12.8-16.2-11.8-28.6"/>
<path id="lowerLidEdge" fill="none" stroke="#F00000" stroke-width="0.2835" stroke-linecap="round" stroke-linejoin="round" stroke-miterlimit="10" d="
	M72.7,31.6c0.1,0.8,0.1,1.6,0.1,2.4c0,21.4-17.3,38.643-38.7,38.7C12.7,72.643-4.6,55.4-4.6,34c0-0.8,0-1.6,0.1-2.4"/>
<path id="upperLidClosed" fill="none" stroke="#F00000" stroke-width="0.2835" stroke-linecap="round" stroke-linejoin="round" stroke-miterlimit="10" d="
	M68.2,31.7c-0.2,5.5-7.795,11.082-13.253,13.858C47.812,49.188,39.538,50.14,34,50.139h0.2c-5.538,0.001-13.812-0.951-20.947-4.58
	C7.795,42.782,0.2,37.2,0,31.7"/>
<path id="upperLidOpen" fill="none" stroke="#F00000" stroke-width="0.2835" stroke-linecap="round" stroke-linejoin="round" stroke-miterlimit="10" d="
	M67.661,29.183C65.321,12.687,51.143,0,34,0S2.678,12.687,0.338,29.183"/>
<path id="upperLidEdge" fill="none" stroke="#F00000" stroke-width="0.2835" stroke-linecap="round" stroke-linejoin="round" stroke-miterlimit="10" d="
	M-4.5,30.1C-2.6,10.5,13.9-4.7,34-4.7s36.6,15.2,38.5,34.8"/>
</svg>
